<?xml version="1.0" encoding="UTF-8" standalone="no"?>
<!-- Created with Inkscape (http://www.inkscape.org/) -->

<svg
   width="1080"
   height="1080"
   viewBox="0 0 1080 1080"
   version="1.1"
   id="svg1"
   xml:space="preserve"
   sodipodi:docname="linkedin_logo_strokes.svg"
   inkscape:version="1.3.2 (091e20e, 2023-11-25, custom)"
   xmlns:inkscape="http://www.inkscape.org/namespaces/inkscape"
   xmlns:sodipodi="http://sodipodi.sourceforge.net/DTD/sodipodi-0.dtd"
   xmlns="http://www.w3.org/2000/svg"
   xmlns:svg="http://www.w3.org/2000/svg"><sodipodi:namedview
     id="namedview1"
     pagecolor="#ffffff"
     bordercolor="#000000"
     borderopacity="0.25"
     inkscape:showpageshadow="2"
     inkscape:pageopacity="0.0"
     inkscape:pagecheckerboard="0"
     inkscape:deskcolor="#d1d1d1"
     inkscape:document-units="px"
     inkscape:zoom="0.5375321"
     inkscape:cx="1116.2124"
     inkscape:cy="449.27549"
     inkscape:window-width="2560"
     inkscape:window-height="1017"
     inkscape:window-x="-8"
     inkscape:window-y="-8"
     inkscape:window-maximized="1"
     inkscape:current-layer="layer1" /><defs
     id="defs1" /><g
     inkscape:label="Layer 1"
     inkscape:groupmode="layer"
     id="layer1"><path
       id="rect1"
       style="opacity:1;fill:none;stroke:#000000;stroke-width:5.645"
       d="M 340.65234 314.24805 C 320.24681 314.24805 303.81836 330.6765 303.81836 351.08203 L 303.81836 723.35938 C 303.81836 743.76491 320.24681 760.19336 340.65234 760.19336 L 712.92969 760.19336 C 733.33522 760.19336 749.76172 743.76491 749.76172 723.35938 L 749.76172 351.08203 C 749.76172 330.6765 733.33522 314.24805 712.92969 314.24805 L 340.65234 314.24805 z M 406.42578 381.33789 A 39.464069 39.464069 0 0 1 445.88867 420.80273 A 39.464069 39.464069 0 0 1 406.42578 460.26562 A 39.464069 39.464069 0 0 1 366.96094 420.80273 A 39.464069 39.464069 0 0 1 406.42578 381.33789 z M 607.9707 479.625 C 642.60412 480.20565 676.42857 502.79957 683.21484 556.71094 L 683.21484 688.56445 L 615.77734 688.09766 L 613.61133 569.44922 C 614.0883 533.71953 569.11878 516.42211 546.58008 558.96875 L 546.58008 689.39258 L 476.20312 689.39258 L 476.20312 483.52148 L 546.58008 483.52148 L 546.58008 503.96484 C 562.57492 488.24715 585.42129 479.24694 607.9707 479.625 z M 372.22266 482.62891 L 442.59961 482.62891 L 442.59961 688.5 L 372.22266 688.5 L 372.22266 482.62891 z " /></g></svg>
