<?xml version="1.0" encoding="UTF-8"?>
<svg version="1.1" viewBox="0 0 1080 1080" xml:space="preserve" xmlns="http://www.w3.org/2000/svg"><path d="m131.75 61.24c-44.837 0-80.935 36.098-80.935 80.935v818c0 44.837 36.098 80.935 80.935 80.935h818c44.837 0 80.93-36.098 80.93-80.935v-818c0-44.837-36.094-80.935-80.93-80.935zm144.52 147.42a86.714 86.714 0 0 1 86.711 86.715 86.714 86.714 0 0 1-86.711 86.711 86.714 86.714 0 0 1-86.715-86.711 86.714 86.714 0 0 1 86.715-86.715zm442.85 215.96c76.099 1.2759 150.42 50.921 165.33 169.38v289.72l-148.18-1.0257-4.7593-260.7c1.048-78.508-97.763-116.52-147.29-23.029v286.58h-154.64v-452.36h154.64v44.92c35.146-34.536 85.345-54.312 134.89-53.482zm-518.01 6.6004h154.64v452.36h-154.64z"/></svg>
