<?xml version="1.0" encoding="UTF-8" standalone="no"?>
<!-- Created with Inkscape (http://www.inkscape.org/) -->

<svg
   width="1080"
   height="1080"
   viewBox="0 0 1080 1080"
   version="1.1"
   id="svg1"
   xml:space="preserve"
   inkscape:version="1.3.2 (091e20e, 2023-11-25, custom)"
   sodipodi:docname="linkedin_logo.svg"
   xmlns:inkscape="http://www.inkscape.org/namespaces/inkscape"
   xmlns:sodipodi="http://sodipodi.sourceforge.net/DTD/sodipodi-0.dtd"
   xmlns="http://www.w3.org/2000/svg"
   xmlns:svg="http://www.w3.org/2000/svg"><sodipodi:namedview
     id="namedview1"
     pagecolor="#ffffff"
     bordercolor="#000000"
     borderopacity="0.25"
     inkscape:showpageshadow="2"
     inkscape:pageopacity="0.0"
     inkscape:pagecheckerboard="0"
     inkscape:deskcolor="#d1d1d1"
     inkscape:document-units="px"
     inkscape:zoom="0.5375321"
     inkscape:cx="1117.1426"
     inkscape:cy="449.27549"
     inkscape:window-width="2560"
     inkscape:window-height="1017"
     inkscape:window-x="-8"
     inkscape:window-y="-8"
     inkscape:window-maximized="1"
     inkscape:current-layer="layer1" /><defs
     id="defs1" /><g
     inkscape:label="Layer 1"
     inkscape:groupmode="layer"
     id="layer1"><path
       style="color:#000000;fill:#000000;-inkscape-stroke:none;stroke:none"
       d="m 340.65234,311.42578 c -21.92037,0 -39.65625,17.73588 -39.65625,39.65625 v 372.27734 c 0,21.92038 17.73588,39.65625 39.65625,39.65625 h 372.27735 c 21.92037,0 39.65625,-17.73587 39.65625,-39.65625 V 351.08203 c 0,-21.92037 -17.73588,-39.65625 -39.65625,-39.65625 z m 0,5.64649 h 372.27735 c 18.89069,0 34.00976,15.11907 34.00976,34.00976 v 372.27734 c 0,18.8907 -15.11907,34.01172 -34.00976,34.01172 H 340.65234 c -18.89069,0 -34.01172,-15.12102 -34.01172,-34.01172 V 351.08203 c 0,-18.89069 15.12103,-34.00976 34.01172,-34.00976 z"
       id="rect1" /><circle
       style="opacity:1;fill:#000000;stroke:none;stroke-width:5.645"
       id="path1"
       cx="406.42514"
       cy="420.80179"
       r="39.464069" /><rect
       style="opacity:1;fill:#000000;stroke:none;stroke-width:5.645"
       id="rect2"
       width="70.377594"
       height="205.87082"
       x="372.22296"
       y="482.62885" /><rect
       style="fill:#000000;stroke:none;stroke-width:5.645"
       id="rect2-4"
       width="70.377594"
       height="205.87082"
       x="476.20331"
       y="483.52179" /><path
       style="opacity:1;fill:#000000;stroke:none;stroke-width:3;stroke-dasharray:none"
       d="m 542.34363,568.40678 c 20.49828,-54.23962 71.77702,-37.09744 71.26787,1.04302 l 2.16568,118.64864 67.43783,0.46509 V 556.71094 C 669.64242,448.88799 547.9141,466.33446 527.87545,534.61923 Z"
       id="path2"
       sodipodi:nodetypes="ccccccc" /></g></svg>
