<?xml version="1.0" encoding="UTF-8"?>
<!-- Created with Inkscape (http://www.inkscape.org/) -->
<svg width="4.268in" height="4in" version="1.1" viewBox="0 0 108.41 101.6" xml:space="preserve" xmlns="http://www.w3.org/2000/svg"><g transform="translate(-43.29 -114.44)" stroke="#040638" stroke-width=".3"><path d="m90.634 119.5c-5.9543 0.0497-21.556 1.408-21.885 3.823-0.75272-0.56453-17.031 5.3072-17.031 5.3072l-0.03049 0.84026 15.682-4.6421 1.7565-0.12506s0.37621 1.6306 2.0071 1.8815c-0.12545 2.2582 2.0072 14.803 7.0254 16.685 1.8191 1.0036 16.936 2.5721 21.829-2.3833 2.07-1.38 4.9554-8.5308 4.5791-15.682 0.87818-0.69 5.6453-0.69039 6.5862 0.12506-0.31363 1.8191 0.063 12.985 6.7748 17.188 2.5718 1.8818 17.501 4.0143 20.261-0.56482 1.5055-1.5682 4.0774-9.5342 4.5165-14.615 0.56455-0.81545 2.2579-0.18848 2.1952-1.3803 0.9409 0.43909 1.2547-1.5054 0.12557-1.819-2.0073-2.8227-31.238-7.6527-33.81 0-2.9119-1.8279-10.056 0.93422-7.151-0.12557 1.8077-0.65945-3.6383-3.8262-11.542-4.4535-0.3842-0.047-1.0376-0.0665-1.8883-0.0594zm-2.7947 1.557c5.7913-0.0512 10.825 1.0296 13.91 2.3394 0.53226 0.53225 0.97582 1.5969 0.7984 2.7058 0.57661 4.6573-1.2417 9.4919-2.7941 12.109-5.3226 7.5847-21.778 5.633-24.085 0.75396-0.79838-1.1976-2.2175-8.738-2.2619-11.133-0.04436-2.3952 1.9957-4.9674 4.8788-5.6327 3.2781-0.7776 6.5199-1.1152 9.5534-1.142zm38.463 0.89917c13.185-0.0654 13.387 3.7323 13.681 4.9444 1.1976 1.9072-1.1086 13.617-3.0158 14.77-6.875 4.2581-18.496 0.39917-20.093-1.5968-2.9274-2.5282-4.258-12.597-3.9031-13.927 0.26613-1.5524 1.6409-3.3269 3.3264-3.5931 3.9718-0.40404 7.2675-0.5838 10.004-0.59738z"/><path d="m138.65 148.5s1.5081 15.968-0.62096 21.379c-1.6855 2.3064-4.879 6.4758-14.992 6.4758-1.2419 3.1048-4.6129 5.0564-5.5887 5.2339 0.35484 1.8629-1.5968 5.2339-4.7903 7.7177s-5.8548 2.129-11.266-2.3952c-2.3952-1.6855-8.1613-5.4113-11.089-8.5161-1.6855 1.2419-5.7661 0.35484-5.7661 0.35484-13.573-5.5887-11.71-5.3226-26.879-27.234-1.1532-0.79839-1.1532-13.04-0.70968-14.726-0.26613-0.53226-2.129-0.26613-2.129-0.26613-0.62097 3.1048-0.44355 34.774 2.3952 40.718 0.8871 4.2581 12.774 16.323 36.46 29.718 7.0968 5.2339 15.702 2.4839 18.629 2.0403 5.8548-0.17742 23.863-21.911 25.637-30.25 4.0806-10.911 1.4194-29.097 1.4194-29.097z"/><path d="m99.736 171.62c3.3873-1.1918 12.295-1.5682 14.929-0.37637-1.9446 0.12546-4.9554 2.8227-5.3318 4.7673-1.6309 0.37636-3.0736 0.0627-3.0736 0.0627-0.31364-1.38-4.4536-4.2027-6.5236-4.4536z"/><path d="m128.19 172.81c0.8871-1.6855 0.97581-4.7016-0.0887-6.2984-1.5081-2.4839-11.266-9.9355-16.5-11.976-1.4194 1.2419-3.1048 2.129-5.5887 0.17742-2.3952 1.6855-14.903 7.8064-16.677 8.0726-2.3065 1.0645-3.2823 4.9677-3.2823 4.9677 1.4194 1.2419 5.1452 0.53226 5.6774-0.17742 0.97581-1.7742 10.468-6.2097 13.839-7.2742 1.5968-0.88709 6.0322 0.44355 7.0081 0.35485 0.44355 2.3064 11.266 7.0968 15.613 12.153z"/></g></svg>
